<?xml version="1.0" encoding="UTF-8" standalone="no"?>
<svg
   width="353.39517pt"
   height="89.411102pt"
   viewBox="0 0 353.39517 89.411102"
   version="1.1"
   id="svg872"
   sodipodi:docname="logo.pdf"
   xmlns:inkscape="http://www.inkscape.org/namespaces/inkscape"
   xmlns:sodipodi="http://sodipodi.sourceforge.net/DTD/sodipodi-0.dtd"
   xmlns="http://www.w3.org/2000/svg"
   xmlns:svg="http://www.w3.org/2000/svg">
  <sodipodi:namedview
     id="namedview874"
     pagecolor="#ffffff"
     bordercolor="#000000"
     borderopacity="0.25"
     inkscape:showpageshadow="2"
     inkscape:pageopacity="0.0"
     inkscape:pagecheckerboard="0"
     inkscape:deskcolor="#d1d1d1"
     inkscape:document-units="pt"
     showgrid="false" />
  <defs
     id="defs800">
    <clipPath
       id="clip-0">
      <path
         clip-rule="nonzero"
         d="m 14,145 h 82 v 88.52344 H 14 Z m 0,0"
         id="path752" />
    </clipPath>
    <clipPath
       id="clip-1">
      <path
         clip-rule="nonzero"
         d="m -4.558594,213.29687 78.519532,-85.72265 58.070312,53.1875 -78.515625,85.72656 z m 0,0"
         id="path755" />
    </clipPath>
    <clipPath
       id="clip-2">
      <path
         clip-rule="nonzero"
         d="m -4.558594,213.29687 78.519532,-85.72265 58.070312,53.1875 -78.515625,85.72656 z m 0,0"
         id="path758" />
    </clipPath>
    <clipPath
       id="clip-3">
      <path
         clip-rule="nonzero"
         d="m -4.558594,213.29687 78.519532,-85.72265 58.070312,53.1875 -78.515625,85.72656 z m 0,0"
         id="path761" />
    </clipPath>
    <clipPath
       id="clip-4">
      <path
         clip-rule="nonzero"
         d="m 36,166.52344 h 63.441406 v 68 H 36 Z m 0,0"
         id="path764" />
    </clipPath>
    <clipPath
       id="clip-5">
      <path
         clip-rule="nonzero"
         d="m -4.558594,213.29687 78.519532,-85.72265 58.070312,53.1875 -78.515625,85.72656 z m 0,0"
         id="path767" />
    </clipPath>
    <clipPath
       id="clip-6">
      <path
         clip-rule="nonzero"
         d="m -4.558594,213.29687 78.519532,-85.72265 58.070312,53.1875 -78.515625,85.72656 z m 0,0"
         id="path770" />
    </clipPath>
    <clipPath
       id="clip-7">
      <path
         clip-rule="nonzero"
         d="m -4.558594,213.29687 78.519532,-85.72265 58.070312,53.1875 -78.515625,85.72656 z m 0,0"
         id="path773" />
    </clipPath>
    <clipPath
       id="clip-8">
      <path
         clip-rule="nonzero"
         d="m 59,189.52344 h 41.44141 V 234 H 59 Z m 0,0"
         id="path776" />
    </clipPath>
    <clipPath
       id="clip-9">
      <path
         clip-rule="nonzero"
         d="m -4.558594,213.29687 78.519532,-85.72265 58.070312,53.1875 -78.515625,85.72656 z m 0,0"
         id="path779" />
    </clipPath>
    <clipPath
       id="clip-10">
      <path
         clip-rule="nonzero"
         d="m -4.558594,213.29687 78.519532,-85.72265 58.070312,53.1875 -78.515625,85.72656 z m 0,0"
         id="path782" />
    </clipPath>
    <clipPath
       id="clip-11">
      <path
         clip-rule="nonzero"
         d="m -4.558594,213.29687 78.519532,-85.72265 58.070312,53.1875 -78.515625,85.72656 z m 0,0"
         id="path785" />
    </clipPath>
    <clipPath
       id="clip-12">
      <path
         clip-rule="nonzero"
         d="m 83.441406,214.52344 h 11 v 11 h -11 z m 0,0"
         id="path788" />
    </clipPath>
    <clipPath
       id="clip-13">
      <path
         clip-rule="nonzero"
         d="m -4.558594,213.29687 78.519532,-85.72265 58.070312,53.1875 -78.515625,85.72656 z m 0,0"
         id="path791" />
    </clipPath>
    <clipPath
       id="clip-14">
      <path
         clip-rule="nonzero"
         d="m -4.558594,213.29687 78.519532,-85.72265 58.070312,53.1875 -78.515625,85.72656 z m 0,0"
         id="path794" />
    </clipPath>
    <clipPath
       id="clip-15">
      <path
         clip-rule="nonzero"
         d="m -4.558594,213.29687 78.519532,-85.72265 58.070312,53.1875 -78.515625,85.72656 z m 0,0"
         id="path797" />
    </clipPath>
  </defs>
  <g
     clip-path="url(#clip-0)"
     id="g810"
     transform="translate(-14.065752,-145.00146)">
    <g
       clip-path="url(#clip-1)"
       id="g808">
      <g
         clip-path="url(#clip-2)"
         id="g806">
        <g
           clip-path="url(#clip-3)"
           id="g804">
          <path
             fill-rule="nonzero"
             fill="#29abe2"
             fill-opacity="1"
             d="m 89.238281,145.00391 c -10.609375,0.46484 -20.808593,2.99218 -30.316406,7.51171 -9.183594,4.36329 -17.332031,10.39454 -24.226563,17.91797 -6.894531,7.52735 -12.183593,16.17578 -15.726562,25.70313 -3.667969,9.86719 -5.292969,20.25 -4.824219,30.85937 0.15625,3.54688 3.15625,6.29688 6.707031,6.14453 3.546876,-0.15625 6.296876,-3.16015 6.144532,-6.70703 -1.59375,-36.22656 26.582031,-66.98828 62.804687,-68.57422 1.777344,-0.0781 3.351563,-0.87109 4.460938,-2.08203 1.113281,-1.21484 1.761719,-2.85156 1.683593,-4.6289 -0.15625,-3.54688 -3.160156,-6.29688 -6.707031,-6.14063 z m 0,0"
             id="path802" />
        </g>
      </g>
    </g>
  </g>
  <g
     clip-path="url(#clip-4)"
     id="g820"
     transform="translate(-14.065752,-145.00146)">
    <g
       clip-path="url(#clip-5)"
       id="g818">
      <g
         clip-path="url(#clip-6)"
         id="g816">
        <g
           clip-path="url(#clip-7)"
           id="g814">
          <path
             fill-rule="nonzero"
             fill="#29abe2"
             fill-opacity="1"
             d="m 51.484375,185.82422 c -10.636719,11.61328 -16.113281,26.68359 -15.421875,42.4375 0.15625,3.55078 3.160156,6.30078 6.710938,6.14453 3.546874,-0.15625 6.296874,-3.15625 6.140624,-6.70703 -1.117187,-25.41016 18.648438,-46.99219 44.058594,-48.10547 1.777344,-0.0742 3.351563,-0.86719 4.460938,-2.07813 1.113281,-1.21484 1.761718,-2.85156 1.683594,-4.6289 -0.15625,-3.54688 -3.160157,-6.29688 -6.707032,-6.14063 -15.753906,0.6875 -30.289062,7.46485 -40.925781,19.07813 z m 0,0"
             id="path812" />
        </g>
      </g>
    </g>
  </g>
  <g
     clip-path="url(#clip-8)"
     id="g830"
     transform="translate(-14.065752,-145.00146)">
    <g
       clip-path="url(#clip-9)"
       id="g828">
      <g
         clip-path="url(#clip-10)"
         id="g826">
        <g
           clip-path="url(#clip-11)"
           id="g824">
          <path
             fill-rule="nonzero"
             fill="#29abe2"
             fill-opacity="1"
             d="m 68.640625,201.53516 c -6.5,7.09765 -9.847656,16.30859 -9.425781,25.9375 0.15625,3.54687 3.160156,6.29687 6.707031,6.14062 3.546875,-0.15234 6.300781,-3.15625 6.144531,-6.70703 -0.5625,-12.77344 9.375,-23.62109 22.148438,-24.18359 1.773437,-0.0742 3.347656,-0.86719 4.460937,-2.07813 1.113281,-1.21484 1.761719,-2.85156 1.683599,-4.62891 -0.15625,-3.54687 -3.160161,-6.29687 -6.710942,-6.14062 -9.625,0.42187 -18.507813,4.5625 -25.007813,11.66016 z m 0,0"
             id="path822" />
        </g>
      </g>
    </g>
  </g>
  <g
     clip-path="url(#clip-12)"
     id="g840"
     transform="translate(-14.065752,-145.00146)">
    <g
       clip-path="url(#clip-13)"
       id="g838">
      <g
         clip-path="url(#clip-14)"
         id="g836">
        <g
           clip-path="url(#clip-15)"
           id="g834">
          <path
             fill-rule="nonzero"
             fill="#29abe2"
             fill-opacity="1"
             d="m 92.421875,216.10937 c 0.257813,0.23438 0.492187,0.4961 0.699219,0.77735 0.207031,0.28515 0.382812,0.58594 0.53125,0.90234 0.148437,0.31641 0.265625,0.64844 0.347656,0.98828 0.08594,0.33985 0.132812,0.6875 0.148438,1.03516 0.01562,0.35156 -0.0039,0.69922 -0.05469,1.04687 -0.05469,0.34766 -0.140625,0.6836 -0.261719,1.01563 -0.117187,0.32812 -0.269531,0.64453 -0.453125,0.94141 -0.179687,0.30078 -0.390625,0.58203 -0.625,0.83984 -0.238281,0.25781 -0.5,0.49219 -0.78125,0.69922 -0.28125,0.20703 -0.582031,0.38281 -0.902344,0.53125 -0.316406,0.14844 -0.644531,0.26562 -0.988281,0.34765 -0.339843,0.0859 -0.683593,0.13282 -1.035156,0.14844 -0.351563,0.0156 -0.699219,-0.004 -1.046875,-0.0547 -0.34375,-0.0547 -0.683594,-0.14062 -1.011719,-0.26171 -0.332031,-0.1211 -0.644531,-0.26954 -0.945312,-0.45313 -0.300781,-0.17969 -0.578125,-0.39062 -0.835938,-0.62891 -0.261719,-0.23437 -0.492187,-0.49609 -0.699219,-0.77734 -0.210937,-0.28516 -0.386718,-0.58203 -0.535156,-0.90234 -0.148437,-0.31641 -0.265625,-0.64453 -0.347656,-0.98828 -0.08203,-0.33985 -0.132812,-0.6836 -0.148438,-1.03516 -0.01562,-0.35156 0.0039,-0.69922 0.05859,-1.04688 0.05078,-0.34375 0.136719,-0.68359 0.257813,-1.01171 0.121093,-0.33204 0.269531,-0.64454 0.453125,-0.94532 0.179687,-0.30078 0.390625,-0.57812 0.628906,-0.83984 0.234375,-0.25781 0.496094,-0.48828 0.777344,-0.69531 0.285156,-0.21094 0.582031,-0.38672 0.902344,-0.53516 0.316406,-0.14844 0.648437,-0.26562 0.988281,-0.34766 0.339843,-0.082 0.683593,-0.13281 1.035156,-0.14843 0.351563,-0.0156 0.699219,0.004 1.046875,0.0586 0.34375,0.0508 0.683594,0.13672 1.011719,0.25781 0.332031,0.1211 0.644531,0.26953 0.945312,0.45313 0.300781,0.18359 0.578125,0.39062 0.839844,0.6289 z m 0,0"
             id="path832" />
        </g>
      </g>
    </g>
  </g>
  <path
     fill-rule="nonzero"
     fill="#29abe2"
     fill-opacity="1"
     d="m 107.64128,49.826655 v -29.23437 h -9.906252 v -6.875 h 28.015632 v 6.875 h -9.92188 v 29.23437 z m 0,0"
     id="path842" />
  <path
     fill-rule="nonzero"
     fill="#29abe2"
     fill-opacity="1"
     d="m 145.62175,50.498535 c -4.6875,0 -8.27344,-1.38281 -10.75,-4.15625 -2.46875,-2.76953 -3.70313,-7.17969 -3.70313,-13.23438 v -19.39062 h 8.1875 v 20.21875 c 0,3.54297 0.53516,6.01562 1.60938,7.42187 1.07031,1.39844 2.625,2.09375 4.65625,2.09375 2.03125,0 3.59766,-0.69531 4.70312,-2.09375 1.10157,-1.40625 1.65625,-3.8789 1.65625,-7.42187 v -20.21875 h 7.875 v 19.39062 c 0,6.05469 -1.21484,10.46485 -3.64062,13.23438 -2.41797,2.77344 -5.94922,4.15625 -10.59375,4.15625 z m 0,0"
     id="path844" />
  <path
     fill-rule="nonzero"
     fill="#29abe2"
     fill-opacity="1"
     d="m 168.19206,49.826655 v -36.10937 h 13.01563 c 1.91406,0 3.71093,0.1875 5.39062,0.5625 1.6875,0.36719 3.15625,0.98437 4.40625,1.85937 1.25781,0.86719 2.25391,2.01563 2.98438,3.45313 0.73828,1.4375 1.10937,3.23047 1.10937,5.375 0,2.65625 -0.58594,4.84375 -1.75,6.5625 -1.15625,1.71875 -2.71484,3 -4.67187,3.84375 l 8.20312,14.45312 h -9.14062 l -6.92188,-13.01562 h -4.48437 v 13.01562 z m 8.14063,-19.48437 h 4.20312 c 2.14453,0 3.78125,-0.45313 4.90625,-1.35938 1.125,-0.90625 1.6875,-2.24218 1.6875,-4.01562 0,-1.76953 -0.5625,-3.00391 -1.6875,-3.70313 -1.125,-0.70703 -2.76172,-1.0625 -4.90625,-1.0625 h -4.20312 z m 0,0"
     id="path846" />
  <path
     fill-rule="nonzero"
     fill="#29abe2"
     fill-opacity="1"
     d="m 202.12175,49.826655 v -36.10937 h 8.35937 l 9.42188,17.95312 3.53125,7.96875 h 0.23437 c -0.1875,-1.91406 -0.40234,-4.05468 -0.64062,-6.42187 -0.24219,-2.36328 -0.35938,-4.61719 -0.35938,-6.76563 v -12.73437 h 7.75 v 36.10937 h -8.35937 l -9.42188,-18 -3.54687,-7.85937 h -0.21875 c 0.1875,1.99219 0.39844,4.13281 0.64062,6.42187 0.23829,2.29297 0.35938,4.50782 0.35938,6.64063 v 12.79687 z m 0,0"
     id="path848" />
  <path
     fill-rule="nonzero"
     fill="#29abe2"
     fill-opacity="1"
     d="m 238.93034,13.717285 h 8.14063 v 36.10937 h -8.14063 z m 0,0"
     id="path850" />
  <path
     fill-rule="nonzero"
     fill="#29abe2"
     fill-opacity="1"
     d="m 270.26237,43.842285 c 2.46875,0 4.42188,-1.06641 5.85938,-3.20313 1.44531,-2.14453 2.17187,-5.15625 2.17187,-9.03125 0,-3.61328 -0.72656,-6.4375 -2.17187,-8.46875 -1.4375,-2.03125 -3.39063,-3.04687 -5.85938,-3.04687 -2.46875,0 -4.42968,1.01562 -5.875,3.04687 -1.4375,2.03125 -2.15625,4.85547 -2.15625,8.46875 0,3.875 0.71875,6.88672 2.15625,9.03125 1.44532,2.13672 3.40625,3.20313 5.875,3.20313 z m 11.90625,16.0625 c -1.91796,0 -3.6875,-0.25 -5.3125,-0.75 -1.625,-0.5 -3.09375,-1.18359 -4.40625,-2.04688 -1.3125,-0.86718 -2.46875,-1.90234 -3.46875,-3.10937 -0.99218,-1.19922 -1.79687,-2.49609 -2.42187,-3.89063 -1.92969,-0.40625 -3.67969,-1.11328 -5.25,-2.125 -1.5625,-1.01953 -2.90234,-2.32031 -4.01563,-3.90625 -1.10546,-1.59375 -1.95312,-3.42968 -2.54687,-5.51562 -0.58594,-2.08203 -0.875,-4.39844 -0.875,-6.95313 0,-2.94531 0.39453,-5.57031 1.1875,-7.875 0.78906,-2.3125 1.90625,-4.2539 3.34375,-5.82812 1.44531,-1.57031 3.17578,-2.76953 5.1875,-3.59375 2.00781,-0.83203 4.23437,-1.25 6.67187,-1.25 2.4375,0 4.66016,0.41797 6.67188,1.25 2.00781,0.82422 3.73437,2.03125 5.17187,3.625 1.44532,1.58594 2.56641,3.53125 3.35938,5.84375 0.78906,2.30469 1.1875,4.91406 1.1875,7.82812 0,4.875 -1.03906,8.88282 -3.10938,12.01563 -2.0625,3.13672 -4.85156,5.20312 -8.35937,6.20312 0.85156,1.28907 2,2.20313 3.4375,2.73438 1.4375,0.53906 2.92969,0.8125 4.48437,0.8125 0.78125,0 1.50782,-0.0586 2.1875,-0.17188 0.6875,-0.10546 1.28516,-0.25 1.79688,-0.4375 l 1.45312,5.92188 c -0.66796,0.33203 -1.54687,0.61719 -2.64062,0.85937 -1.08594,0.23829 -2.32813,0.35938 -3.73438,0.35938 z m 0,0"
     id="path852" />
  <path
     fill-rule="nonzero"
     fill="#29abe2"
     fill-opacity="1"
     d="m 307.68425,50.498535 c -4.6875,0 -8.27344,-1.38281 -10.75,-4.15625 -2.46875,-2.76953 -3.70313,-7.17969 -3.70313,-13.23438 v -19.39062 h 8.1875 v 20.21875 c 0,3.54297 0.53516,6.01562 1.60938,7.42187 1.07031,1.39844 2.625,2.09375 4.65625,2.09375 2.03125,0 3.59766,-0.69531 4.70312,-2.09375 1.10157,-1.40625 1.65625,-3.8789 1.65625,-7.42187 v -20.21875 h 7.875 v 19.39062 c 0,6.05469 -1.21484,10.46485 -3.64062,13.23438 -2.41797,2.77344 -5.94922,4.15625 -10.59375,4.15625 z m 0,0"
     id="path854" />
  <path
     fill-rule="nonzero"
     fill="#29abe2"
     fill-opacity="1"
     d="m 330.25456,49.826655 v -36.10937 h 22.59375 v 6.875 h -14.45312 v 7.25 h 12.29687 v 6.8125 h -12.29687 v 8.3125 h 15 v 6.85937 z m 0,0"
     id="path856" />
  <path
     fill-rule="nonzero"
     fill="#000000"
     fill-opacity="1"
     d="m 143.38347,73.428225 c -0.85547,0 -1.70313,-0.15625 -2.54688,-0.46875 -0.84375,-0.3125 -1.60156,-0.78125 -2.26562,-1.40625 l 1.67187,-2.01563 c 0.46875,0.39844 0.98438,0.72656 1.54688,0.98438 0.5625,0.25 1.11719,0.375 1.67187,0.375 0.61328,0 1.06641,-0.10938 1.35938,-0.32813 0.30078,-0.22656 0.45312,-0.53515 0.45312,-0.92187 0,-0.20703 -0.043,-0.38282 -0.125,-0.53125 -0.0859,-0.14453 -0.21093,-0.26953 -0.375,-0.375 -0.16797,-0.11328 -0.37109,-0.22266 -0.60937,-0.32813 -0.23047,-0.10156 -0.48438,-0.21094 -0.76563,-0.32812 l -1.70312,-0.71875 c -0.33594,-0.13282 -0.65625,-0.30469 -0.96875,-0.51563 -0.3125,-0.21875 -0.59375,-0.46875 -0.84375,-0.75 -0.24219,-0.28906 -0.4336,-0.625 -0.57813,-1 -0.14843,-0.38281 -0.21875,-0.8164 -0.21875,-1.29687 0,-0.53125 0.10938,-1.03125 0.32813,-1.5 0.22656,-0.47657 0.55078,-0.89063 0.96875,-1.23438 0.41406,-0.35156 0.90625,-0.6289 1.46875,-0.82812 0.5625,-0.20703 1.17969,-0.3125 1.85937,-0.3125 0.75782,0 1.50782,0.15234 2.25,0.45312 0.73828,0.29297 1.39063,0.71485 1.95313,1.26563 l -1.5,1.85937 c -0.42969,-0.33203 -0.85547,-0.58594 -1.28125,-0.76562 -0.42969,-0.17578 -0.90235,-0.26563 -1.42188,-0.26563 -0.5,0 -0.90234,0.10547 -1.20312,0.3125 -0.30469,0.19922 -0.45313,0.48438 -0.45313,0.85938 0,0.19922 0.0508,0.37109 0.15625,0.51562 0.10157,0.13672 0.24219,0.26172 0.42188,0.375 0.17578,0.11719 0.38281,0.22656 0.625,0.32813 0.23828,0.0937 0.5,0.20312 0.78125,0.32812 l 1.67187,0.67188 c 0.80078,0.32422 1.42969,0.76562 1.89063,1.32812 0.45703,0.55469 0.6875,1.28906 0.6875,2.20313 0,0.55468 -0.10938,1.07422 -0.32813,1.5625 -0.21875,0.48047 -0.54297,0.90234 -0.96875,1.26562 -0.41797,0.36719 -0.93359,0.65625 -1.54687,0.875 -0.60547,0.21875 -1.29297,0.32813 -2.0625,0.32813 z m 0,0"
     id="path858" />
  <path
     fill-rule="nonzero"
     fill="#000000"
     fill-opacity="1"
     d="m 168.73112,73.193845 v -4.625 l -3.9375,-8.39062 h 3.15625 l 1.15625,2.98437 c 0.1875,0.5 0.36329,0.98047 0.53125,1.4375 0.16407,0.46094 0.34375,0.9375 0.53125,1.4375 h 0.0781 c 0.1875,-0.5 0.36719,-0.97656 0.54687,-1.4375 0.17579,-0.45703 0.35938,-0.9375 0.54688,-1.4375 l 1.17187,-2.98437 h 3.07813 l -3.9375,8.39062 v 4.625 z m 0,0"
     id="path860" />
  <path
     fill-rule="nonzero"
     fill="#000000"
     fill-opacity="1"
     d="m 196.92644,73.428225 c -0.85547,0 -1.70313,-0.15625 -2.54688,-0.46875 -0.84375,-0.3125 -1.60156,-0.78125 -2.26562,-1.40625 l 1.67187,-2.01563 c 0.46875,0.39844 0.98438,0.72656 1.54688,0.98438 0.5625,0.25 1.11718,0.375 1.67187,0.375 0.61328,0 1.06641,-0.10938 1.35938,-0.32813 0.30078,-0.22656 0.45312,-0.53515 0.45312,-0.92187 0,-0.20703 -0.043,-0.38282 -0.125,-0.53125 -0.0859,-0.14453 -0.21094,-0.26953 -0.375,-0.375 -0.16797,-0.11328 -0.37109,-0.22266 -0.60937,-0.32813 -0.23047,-0.10156 -0.48438,-0.21094 -0.76563,-0.32812 l -1.70312,-0.71875 c -0.33594,-0.13282 -0.65625,-0.30469 -0.96875,-0.51563 -0.3125,-0.21875 -0.59375,-0.46875 -0.84375,-0.75 -0.24219,-0.28906 -0.4336,-0.625 -0.57813,-1 -0.14844,-0.38281 -0.21875,-0.8164 -0.21875,-1.29687 0,-0.53125 0.10938,-1.03125 0.32813,-1.5 0.22656,-0.47657 0.55078,-0.89063 0.96875,-1.23438 0.41406,-0.35156 0.90625,-0.6289 1.46875,-0.82812 0.5625,-0.20703 1.17968,-0.3125 1.85937,-0.3125 0.75781,0 1.50781,0.15234 2.25,0.45312 0.73828,0.29297 1.39063,0.71485 1.95313,1.26563 l -1.5,1.85937 c -0.42969,-0.33203 -0.85547,-0.58594 -1.28125,-0.76562 -0.42969,-0.17578 -0.90235,-0.26563 -1.42188,-0.26563 -0.5,0 -0.90234,0.10547 -1.20312,0.3125 -0.30469,0.19922 -0.45313,0.48438 -0.45313,0.85938 0,0.19922 0.0508,0.37109 0.15625,0.51562 0.10156,0.13672 0.24219,0.26172 0.42188,0.375 0.17578,0.11719 0.38281,0.22656 0.625,0.32813 0.23828,0.0937 0.5,0.20312 0.78125,0.32812 l 1.67187,0.67188 c 0.80078,0.32422 1.42969,0.76562 1.89063,1.32812 0.45703,0.55469 0.6875,1.28906 0.6875,2.20313 0,0.55468 -0.10938,1.07422 -0.32813,1.5625 -0.21875,0.48047 -0.54297,0.90234 -0.96875,1.26562 -0.41797,0.36719 -0.93359,0.65625 -1.54687,0.875 -0.60547,0.21875 -1.29297,0.32813 -2.0625,0.32813 z m 0,0"
     id="path862" />
  <path
     fill-rule="nonzero"
     fill="#000000"
     fill-opacity="1"
     d="m 222.57097,73.193845 v -10.54687 h -3.57813 v -2.46875 h 10.10938 v 2.46875 h -3.57813 v 10.54687 z m 0,0"
     id="path864" />
  <path
     fill-rule="nonzero"
     fill="#000000"
     fill-opacity="1"
     d="m 247.10612,73.193845 v -13.01562 h 8.15625 v 2.46875 h -5.21875 v 2.625 h 4.4375 v 2.45312 h -4.4375 v 3 h 5.42188 v 2.46875 z m 0,0"
     id="path866" />
  <path
     fill-rule="nonzero"
     fill="#000000"
     fill-opacity="1"
     d="m 274.028,73.193845 v -13.01562 h 3.21875 l 2.09375,5.78125 c 0.13281,0.38672 0.25781,0.78125 0.375,1.1875 0.125,0.40625 0.25391,0.8125 0.39062,1.21875 h 0.0781 c 0.13281,-0.40625 0.25781,-0.8125 0.375,-1.21875 0.11328,-0.40625 0.23437,-0.80078 0.35937,-1.1875 l 2.0625,-5.78125 h 3.1875 v 13.01562 h -2.67187 v -4.76562 c 0,-0.32032 0.008,-0.67578 0.0312,-1.0625 0.0312,-0.38282 0.0664,-0.77344 0.10937,-1.17188 0.0391,-0.39453 0.082,-0.78125 0.125,-1.15625 0.0391,-0.375 0.0781,-0.72265 0.10938,-1.04687 h -0.0781 l -1.04687,3.09375 -1.85938,4.96875 h -1.625 l -1.85937,-4.96875 -1.03125,-3.09375 h -0.0781 c 0.0391,0.32422 0.0781,0.67187 0.10938,1.04687 0.0391,0.375 0.082,0.76172 0.125,1.15625 0.0391,0.39844 0.0703,0.78906 0.0937,1.17188 0.0312,0.38672 0.0469,0.74218 0.0469,1.0625 v 4.76562 z m 0,0"
     id="path868" />
  <path
     fill-rule="nonzero"
     fill="#000000"
     fill-opacity="1"
     d="m 309.20378,73.428225 c -0.85547,0 -1.70312,-0.15625 -2.54687,-0.46875 -0.84375,-0.3125 -1.60157,-0.78125 -2.26563,-1.40625 l 1.67188,-2.01563 c 0.46875,0.39844 0.98437,0.72656 1.54687,0.98438 0.5625,0.25 1.11719,0.375 1.67188,0.375 0.61328,0 1.0664,-0.10938 1.35937,-0.32813 0.30078,-0.22656 0.45313,-0.53515 0.45313,-0.92187 0,-0.20703 -0.043,-0.38282 -0.125,-0.53125 -0.0859,-0.14453 -0.21094,-0.26953 -0.375,-0.375 -0.16797,-0.11328 -0.3711,-0.22266 -0.60938,-0.32813 -0.23047,-0.10156 -0.48437,-0.21094 -0.76562,-0.32812 l -1.70313,-0.71875 c -0.33594,-0.13282 -0.65625,-0.30469 -0.96875,-0.51563 -0.3125,-0.21875 -0.59375,-0.46875 -0.84375,-0.75 -0.24219,-0.28906 -0.43359,-0.625 -0.57812,-1 -0.14844,-0.38281 -0.21875,-0.8164 -0.21875,-1.29687 0,-0.53125 0.10937,-1.03125 0.32812,-1.5 0.22656,-0.47657 0.55078,-0.89063 0.96875,-1.23438 0.41406,-0.35156 0.90625,-0.6289 1.46875,-0.82812 0.5625,-0.20703 1.17969,-0.3125 1.85938,-0.3125 0.75781,0 1.50781,0.15234 2.25,0.45312 0.73828,0.29297 1.39062,0.71485 1.95312,1.26563 l -1.5,1.85937 c -0.42969,-0.33203 -0.85547,-0.58594 -1.28125,-0.76562 -0.42969,-0.17578 -0.90234,-0.26563 -1.42187,-0.26563 -0.5,0 -0.90235,0.10547 -1.20313,0.3125 -0.30469,0.19922 -0.45312,0.48438 -0.45312,0.85938 0,0.19922 0.0508,0.37109 0.15625,0.51562 0.10156,0.13672 0.24218,0.26172 0.42187,0.375 0.17578,0.11719 0.38281,0.22656 0.625,0.32813 0.23828,0.0937 0.5,0.20312 0.78125,0.32812 l 1.67188,0.67188 c 0.80078,0.32422 1.42968,0.76562 1.89062,1.32812 0.45703,0.55469 0.6875,1.28906 0.6875,2.20313 0,0.55468 -0.10937,1.07422 -0.32812,1.5625 -0.21875,0.48047 -0.54297,0.90234 -0.96875,1.26562 -0.41797,0.36719 -0.9336,0.65625 -1.54688,0.875 -0.60547,0.21875 -1.29297,0.32813 -2.0625,0.32813 z m 0,0"
     id="path870" />
</svg>
